<?xml version="1.0" encoding="utf-8"?>
<!-- Generator: Adobe Illustrator 16.0.0, SVG Export Plug-In . SVG Version: 6.00 Build 0)  -->
<!DOCTYPE svg PUBLIC "-//W3C//DTD SVG 1.1//EN" "http://www.w3.org/Graphics/SVG/1.1/DTD/svg11.dtd">
<svg version="1.1" id="Layer_1" xmlns="http://www.w3.org/2000/svg" xmlns:xlink="http://www.w3.org/1999/xlink" x="0px" y="0px"
	 width="1024px" height="1024px" viewBox="0 0 1024 1024" enable-background="new 0 0 1024 1024" xml:space="preserve">
<circle id="circle-1_1_" fill="#FFFFFF" stroke="#000000" stroke-width="2" stroke-miterlimit="10" cx="512" cy="512" r="500"/>
<path id="circle-2_1_" fill="#FFFFFF" stroke="#000000" stroke-width="2" stroke-miterlimit="10" d="M512,962
	C263.869,962,62,760.131,62,512S263.869,62,512,62s450,201.869,450,450S760.131,962,512,962z"/>
<path id="circle-3_2_" fill="#FFFFFF" stroke="#000000" stroke-width="2" stroke-miterlimit="10" d="M512,912
	c-220.561,0-400-179.439-400-400c0-220.561,179.439-400,400-400c220.561,0,400,179.439,400,400C912,732.561,732.561,912,512,912z"/>
<path id="circle-4_1_" stroke="#FFFFFF" stroke-width="2" stroke-miterlimit="10" d="M512,862c-192.991,0-350-157.01-350-350
	c0-192.991,157.009-350,350-350c192.99,0,350,157.009,350,350C862,704.99,704.99,862,512,862z"/>
<path id="circle-5_1_" stroke="#FFFFFF" stroke-width="2" stroke-miterlimit="10" d="M512,812c-165.42,0-300-134.579-300-300
	c0-165.42,134.58-300,300-300c165.421,0,300,134.58,300,300C812,677.421,677.421,812,512,812z"/>
<path id="circle-6" stroke="#FFFFFF" stroke-width="2" stroke-miterlimit="10" d="M512,762c-137.851,0-250-112.149-250-250
	c0-137.851,112.149-250,250-250s250,112.149,250,250C762,649.851,649.851,762,512,762z"/>
<path id="circle-7_1_" stroke="#FFFFFF" stroke-width="2" stroke-miterlimit="10" d="M512,712c-110.28,0-200-89.72-200-200
	s89.72-200,200-200s200,89.72,200,200S622.28,712,512,712z"/>
<path id="circle-8_1_" stroke="#FFFFFF" stroke-width="2" stroke-miterlimit="10" d="M512,662c-82.71,0-150-67.29-150-150
	s67.29-150,150-150s150,67.29,150,150S594.71,662,512,662z"/>
<path id="circle-9_2_" fill="#FF0000" stroke="#FFFFFF" stroke-width="2" stroke-miterlimit="10" d="M512,612
	c-55.14,0-100-44.859-100-100c0-55.14,44.86-100,100-100c55.141,0,100,44.86,100,100C612,567.141,567.141,612,512,612z"/>
<circle id="circle-10" fill="#FF0000" stroke="#FFFFFF" stroke-width="3" stroke-miterlimit="10" cx="512" cy="512" r="50"/>
</svg>
