
<svg version="1.1" id="Layer_1" xmlns="http://www.w3.org/2000/svg" xmlns:xlink="http://www.w3.org/1999/xlink" x="0px" y="0px"
	 width="1024px" height="1024px" viewBox="0 0 1024 1024" enable-background="new 0 0 1024 1024" xml:space="preserve">
<g>
	<g display="none">
		<rect x="-1" y="1" display="inline" fill="#FFFFFF" width="1024" height="1024"/>
		<path display="inline" d="M1026,1027H-3V-2h1029V1027z M2,1022h1019V3H2V1022z"/>
	</g>
	<g>
		<circle fill="#FFFFFF" cx="512" cy="512" r="500"/>
		<path d="M512,1014.5c-67.836,0-133.644-13.286-195.597-39.49c-59.837-25.309-113.577-61.541-159.725-107.688
			c-46.148-46.148-82.38-99.887-107.688-159.725C22.787,645.645,9.5,579.836,9.5,512s13.287-133.644,39.49-195.597
			c25.309-59.837,61.541-113.577,107.688-159.725s99.887-82.38,159.725-107.688C378.356,22.787,444.164,9.5,512,9.5
			s133.645,13.287,195.597,39.49c59.838,25.309,113.576,61.541,159.725,107.688c46.147,46.148,82.38,99.887,107.688,159.725
			c26.204,61.953,39.49,127.761,39.49,195.597s-13.286,133.645-39.49,195.597c-25.309,59.838-61.541,113.576-107.688,159.725
			c-46.148,46.147-99.887,82.38-159.725,107.688C645.645,1001.214,579.836,1014.5,512,1014.5z M512,14.5
			C237.678,14.5,14.5,237.678,14.5,512s223.178,497.5,497.5,497.5s497.5-223.178,497.5-497.5S786.322,14.5,512,14.5z"/>
	</g>
	<g>
		<path fill="#FFFFFF" d="M512,962C263.869,962,62,760.131,62,512S263.869,62,512,62s450,201.869,450,450S760.131,962,512,962z"/>
		<path d="M512,964.5C262.491,964.5,59.5,761.51,59.5,512C59.5,262.491,262.491,59.5,512,59.5c249.51,0,452.5,202.991,452.5,452.5
			C964.5,761.51,761.51,964.5,512,964.5z M512,64.5C265.248,64.5,64.5,265.248,64.5,512c0,246.752,200.748,447.5,447.5,447.5
			c246.752,0,447.5-200.748,447.5-447.5C959.5,265.248,758.752,64.5,512,64.5z"/>
	</g>
	<g>
		<path fill="#FFFFFF" d="M512,912c-220.561,0-400-179.439-400-400c0-220.561,179.439-400,400-400c220.561,0,400,179.439,400,400
			C912,732.561,732.561,912,512,912z"/>
		<path d="M512,914.5c-221.939,0-402.5-180.561-402.5-402.5S290.061,109.5,512,109.5S914.5,290.061,914.5,512
			S733.939,914.5,512,914.5z M512,114.5c-219.182,0-397.5,178.318-397.5,397.5c0,219.183,178.318,397.5,397.5,397.5
			c219.183,0,397.5-178.317,397.5-397.5C909.5,292.818,731.183,114.5,512,114.5z"/>
	</g>
	<g>
		<g>
			<path d="M512,862c-192.991,0-350-157.01-350-350c0-192.991,157.009-350,350-350c192.99,0,350,157.009,350,350
				C862,704.99,704.99,862,512,862z"/>
			<path fill="#FFFFFF" d="M512,864.5c-194.369,0-352.5-158.131-352.5-352.5S317.631,159.5,512,159.5S864.5,317.631,864.5,512
				S706.369,864.5,512,864.5z M512,164.5c-191.612,0-347.5,155.888-347.5,347.5S320.388,859.5,512,859.5S859.5,703.612,859.5,512
				S703.612,164.5,512,164.5z"/>
		</g>
		<g>
			<path d="M512,812c-165.42,0-300-134.579-300-300c0-165.42,134.58-300,300-300c165.421,0,300,134.58,300,300
				C812,677.421,677.421,812,512,812z"/>
			<path fill="#FFFFFF" d="M512,814.5c-166.799,0-302.5-135.701-302.5-302.5c0-166.799,135.701-302.5,302.5-302.5
				c166.799,0,302.5,135.701,302.5,302.5C814.5,678.799,678.799,814.5,512,814.5z M512,214.5c-164.042,0-297.5,133.458-297.5,297.5
				S347.958,809.5,512,809.5S809.5,676.042,809.5,512S676.042,214.5,512,214.5z"/>
		</g>
		<g>
			<path d="M512,762c-137.851,0-250-112.149-250-250s112.149-250,250-250s250,112.149,250,250S649.851,762,512,762z"/>
			<path fill="#FFFFFF" d="M512,764.5c-139.229,0-252.5-113.271-252.5-252.5c0-139.229,113.271-252.5,252.5-252.5
				c139.229,0,252.5,113.271,252.5,252.5C764.5,651.229,651.229,764.5,512,764.5z M512,264.5c-136.472,0-247.5,111.028-247.5,247.5
				c0,136.472,111.028,247.5,247.5,247.5c136.472,0,247.5-111.028,247.5-247.5C759.5,375.528,648.472,264.5,512,264.5z"/>
		</g>
		<g>
			<path d="M512,712c-110.28,0-200-89.72-200-200s89.72-200,200-200s200,89.72,200,200S622.28,712,512,712z"/>
			<path fill="#FFFFFF" d="M512,714.5c-111.659,0-202.5-90.841-202.5-202.5c0-111.659,90.841-202.5,202.5-202.5
				c111.659,0,202.5,90.841,202.5,202.5C714.5,623.659,623.659,714.5,512,714.5z M512,314.5c-108.902,0-197.5,88.598-197.5,197.5
				c0,108.902,88.598,197.5,197.5,197.5c108.902,0,197.5-88.598,197.5-197.5C709.5,403.098,620.902,314.5,512,314.5z"/>
		</g>
		<g>
			<path d="M512,662c-82.71,0-150-67.29-150-150c0-82.71,67.29-150,150-150c82.71,0,150,67.29,150,150
				C662,594.71,594.71,662,512,662z"/>
			<path fill="#FFFFFF" d="M512,664.5c-84.089,0-152.5-68.411-152.5-152.5S427.911,359.5,512,359.5S664.5,427.911,664.5,512
				S596.089,664.5,512,664.5z M512,364.5c-81.332,0-147.5,66.168-147.5,147.5c0,81.332,66.168,147.5,147.5,147.5
				c81.332,0,147.5-66.168,147.5-147.5C659.5,430.668,593.332,364.5,512,364.5z"/>
		</g>
		<g>
			<path fill="#FF0000" d="M512,612c-55.14,0-100-44.859-100-100c0-55.14,44.86-100,100-100c55.141,0,100,44.86,100,100
				C612,567.141,567.141,612,512,612z"/>
			<path fill="#FFFFFF" d="M512,614.5c-56.519,0-102.5-45.981-102.5-102.5S455.481,409.5,512,409.5S614.5,455.481,614.5,512
				S568.519,614.5,512,614.5z M512,414.5c-53.762,0-97.5,43.738-97.5,97.5s43.738,97.5,97.5,97.5s97.5-43.738,97.5-97.5
				S565.762,414.5,512,414.5z"/>
		</g>
		<g>
			<circle fill="#FF0000" cx="512" cy="512" r="50"/>
			<path fill="#FFFFFF" d="M512,564.5c-28.949,0-52.5-23.552-52.5-52.5c0-28.949,23.551-52.5,52.5-52.5
				c28.948,0,52.5,23.551,52.5,52.5C564.5,540.948,540.948,564.5,512,564.5z M512,464.5c-26.191,0-47.5,21.309-47.5,47.5
				s21.309,47.5,47.5,47.5s47.5-21.309,47.5-47.5S538.191,464.5,512,464.5z"/>
		</g>
	</g>
</g>
<g id="Numbers">
	<g>
		<g>
			<path d="M487.919,24.571h-0.101l-5.65,3.05l-0.85-3.35l7.101-3.8h3.75v32.502h-4.25V24.571z"/>
		</g>
		<g>
			<path d="M476.368,103.254v-2.7l3.45-3.35c8.3-7.9,12.101-12.101,12.101-17.001c0-3.3-1.551-6.351-6.4-6.351
				c-2.95,0-5.4,1.5-6.9,2.75l-1.4-3.1c2.2-1.85,5.45-3.3,9.151-3.3c7,0,9.951,4.8,9.951,9.451c0,6-4.351,10.851-11.201,17.451
				l-2.55,2.4v0.1h14.55v3.65H476.368z"/>
		</g>
		<g>
			<path d="M477.793,147.407c1.25,0.75,4.1,2,7.2,2c5.601,0,7.4-3.55,7.35-6.301c-0.049-4.55-4.149-6.5-8.399-6.5h-2.45v-3.3h2.45
				c3.2,0,7.25-1.65,7.25-5.5c0-2.6-1.65-4.9-5.7-4.9c-2.601,0-5.101,1.15-6.5,2.15l-1.2-3.2c1.75-1.25,5.05-2.5,8.55-2.5
				c6.4,0,9.301,3.8,9.301,7.75c0,3.4-2.051,6.25-6,7.701v0.1c4,0.75,7.2,3.75,7.25,8.3c0,5.201-4.1,9.75-11.851,9.75
				c-3.65,0-6.851-1.15-8.45-2.2L477.793,147.407z"/>
		</g>
		<g>
			<path fill="#FFFFFF" d="M489.943,201.56v-8.9h-15.101v-2.85l14.5-20.751h4.75v20.201h4.551v3.4h-4.551v8.9H489.943z
				 M489.943,189.259v-10.851c0-1.7,0.05-3.4,0.149-5.101h-0.149c-1,1.9-1.8,3.3-2.7,4.8l-7.951,11.051v0.1H489.943z"/>
		</g>
		<g>
			<path fill="#FFFFFF" d="M496.193,225.3h-12.4l-1.25,8.351c0.75-0.1,1.45-0.15,2.65-0.15c2.55,0,5,0.5,7,1.75
				c2.55,1.4,4.65,4.25,4.65,8.3c0,6.351-5.051,11.101-12.101,11.101c-3.551,0-6.501-1-8.101-2l1.1-3.35c1.351,0.8,4,1.8,7.001,1.8
				c4.1,0,7.7-2.7,7.65-7.051c0-4.2-2.851-7.15-9.301-7.15c-1.9,0-3.351,0.15-4.551,0.3l2.101-15.601h15.551V225.3z"/>
		</g>
		<g>
			<path fill="#FFFFFF" d="M494.694,273.853c-0.9-0.05-2.051,0.05-3.301,0.25c-6.95,1.1-10.551,6.101-11.301,11.501h0.1
				c1.55-2.1,4.3-3.8,7.9-3.8c5.751,0,9.801,4.2,9.801,10.5c0,6-4.05,11.5-10.85,11.5c-6.9,0-11.451-5.4-11.451-13.851
				c0-6.4,2.25-11.451,5.5-14.651c2.7-2.65,6.3-4.3,10.4-4.8c1.301-0.2,2.4-0.25,3.201-0.25V273.853z M493.444,292.604
				c0-4.65-2.65-7.45-6.701-7.45c-2.65,0-5.15,1.6-6.35,4c-0.25,0.5-0.45,1.1-0.45,1.9c0.05,5.35,2.55,9.351,7.201,9.351
				C490.894,300.404,493.444,297.254,493.444,292.604z"/>
		</g>
		<g>
			<path fill="#FFFFFF" d="M496.994,319.905v2.9l-14.151,29.602h-4.55l14.101-28.752v-0.1h-15.901v-3.65H496.994z"/>
		</g>
		<g>
			<path fill="#FFFFFF" d="M482.168,386.153c-3.65-1.7-5.2-4.5-5.2-7.3c0-5.15,4.35-8.651,10.101-8.651c6.3,0,9.5,3.9,9.5,8
				c0,2.75-1.4,5.75-5.4,7.601v0.15c4.051,1.6,6.551,4.5,6.551,8.401c0,5.7-4.851,9.45-11.051,9.45c-6.801,0-10.9-4-10.9-8.75
				c0-4.1,2.45-7.05,6.45-8.75L482.168,386.153z M493.268,394.804c0-3.9-2.749-5.85-7.149-7.1c-3.801,1.1-5.851,3.65-5.851,6.75
				c-0.15,3.25,2.351,6.15,6.5,6.15C490.718,400.604,493.268,398.154,493.268,394.804z M481.168,378.553c-0.051,3.25,2.45,5,6.2,6
				c2.8-0.95,4.95-2.95,4.95-5.9c0-2.6-1.55-5.3-5.5-5.3C483.168,373.353,481.168,375.753,481.168,378.553z"/>
		</g>
	</g>
	<g>
		<g>
			<path d="M988.292,477.386h-0.101l-5.65,3.05l-0.85-3.35l7.101-3.8h3.75v32.502h-4.25V477.386z"/>
		</g>
		<g>
			<path d="M926.625,506.063v-2.7l3.449-3.35c8.301-7.9,12.102-12.101,12.102-17.001c0-3.301-1.551-6.351-6.4-6.351
				c-2.95,0-5.4,1.5-6.9,2.75l-1.4-3.101c2.2-1.85,5.45-3.3,9.15-3.3c7,0,9.951,4.8,9.951,9.45c0,6.001-4.351,10.851-11.201,17.451
				l-2.55,2.4v0.1h14.55v3.65H926.625z"/>
		</g>
		<g>
			<path d="M873.912,500.787c1.25,0.75,4.1,2.001,7.2,2.001c5.601,0,7.4-3.551,7.35-6.301c-0.049-4.551-4.149-6.5-8.399-6.5h-2.45
				v-3.301h2.45c3.2,0,7.25-1.65,7.25-5.5c0-2.601-1.65-4.9-5.7-4.9c-2.601,0-5.101,1.15-6.5,2.15l-1.2-3.2
				c1.75-1.25,5.05-2.501,8.55-2.501c6.4,0,9.301,3.801,9.301,7.751c0,3.4-2.051,6.25-6,7.7v0.101c4,0.75,7.2,3.75,7.25,8.3
				c0,5.201-4.1,9.751-11.851,9.751c-3.65,0-6.851-1.15-8.45-2.2L873.912,500.787z"/>
		</g>
		<g>
			<path fill="#FFFFFF" d="M837.167,505.788v-8.9h-15.101v-2.85l14.5-20.751h4.75v20.201h4.551v3.4h-4.551v8.9H837.167z
				 M837.167,493.487v-10.851c0-1.7,0.05-3.4,0.149-5.101h-0.149c-1,1.9-1.8,3.3-2.7,4.8l-7.951,11.051v0.1H837.167z"/>
		</g>
		<g>
			<path fill="#FFFFFF" d="M794.206,476.711h-12.4l-1.25,8.351c0.75-0.1,1.45-0.15,2.65-0.15c2.55,0,5,0.5,7,1.75
				c2.55,1.4,4.65,4.25,4.65,8.3c0,6.351-5.051,11.101-12.101,11.101c-3.551,0-6.501-1-8.101-2l1.1-3.35c1.351,0.8,4,1.8,7.001,1.8
				c4.1,0,7.7-2.7,7.65-7.051c0-4.2-2.851-7.15-9.301-7.15c-1.9,0-3.351,0.15-4.551,0.3l2.101-15.601h15.551V476.711z"/>
		</g>
		<g>
			<path fill="#FFFFFF" d="M742.294,476.361c-0.9-0.05-2.051,0.05-3.301,0.25c-6.951,1.1-10.551,6.101-11.301,11.501h0.1
				c1.551-2.1,4.301-3.8,7.9-3.8c5.75,0,9.801,4.2,9.801,10.5c0,6-4.051,11.5-10.851,11.5c-6.9,0-11.45-5.4-11.45-13.851
				c0-6.4,2.25-11.451,5.5-14.651c2.699-2.65,6.301-4.3,10.4-4.8c1.301-0.2,2.4-0.25,3.201-0.25V476.361z M741.044,495.112
				c0-4.65-2.65-7.45-6.701-7.45c-2.65,0-5.15,1.6-6.351,4c-0.25,0.5-0.45,1.1-0.45,1.9c0.051,5.35,2.551,9.351,7.201,9.351
				C738.493,502.913,741.044,499.762,741.044,495.112z"/>
		</g>
		<g>
			<path fill="#FFFFFF" d="M696.04,473.286v2.9l-14.151,29.602h-4.55l14.101-28.752v-0.1h-15.901v-3.65H696.04z"/>
		</g>
		<g>
			<path fill="#FFFFFF" d="M628.9,488.687c-3.65-1.7-5.2-4.5-5.2-7.3c0-5.15,4.35-8.651,10.101-8.651c6.3,0,9.5,3.9,9.5,8.001
				c0,2.75-1.4,5.75-5.4,7.601v0.149c4.051,1.601,6.551,4.501,6.551,8.401c0,5.7-4.851,9.45-11.051,9.45c-6.801,0-10.9-4-10.9-8.751
				c0-4.1,2.45-7.05,6.45-8.75L628.9,488.687z M640,497.337c0-3.899-2.749-5.85-7.149-7.1c-3.801,1.1-5.851,3.649-5.851,6.75
				c-0.15,3.25,2.351,6.15,6.5,6.15C637.45,503.138,640,500.688,640,497.337z M627.9,481.086c-0.051,3.251,2.45,5.001,6.2,6.001
				c2.8-0.95,4.95-2.95,4.95-5.9c0-2.601-1.55-5.301-5.5-5.301C629.9,475.886,627.9,478.286,627.9,481.086z"/>
		</g>
	</g>
	<g>
		<g>
			<path d="M33.345,524.57h-0.101l-5.65,3.051l-0.85-3.35l7.101-3.801h3.75v32.502h-4.25V524.57z"/>
		</g>
		<g>
			<path d="M76.625,553.248v-2.701l3.45-3.35c8.3-7.9,12.101-12.101,12.101-17.001c0-3.3-1.551-6.351-6.4-6.351
				c-2.95,0-5.4,1.5-6.9,2.75l-1.4-3.1c2.2-1.851,5.45-3.301,9.151-3.301c7,0,9.951,4.801,9.951,9.451
				c0,6-4.351,10.85-11.201,17.451l-2.55,2.4v0.1h14.55v3.65H76.625z"/>
		</g>
		<g>
			<path d="M128.84,547.973c1.25,0.75,4.1,2,7.2,2c5.601,0,7.4-3.551,7.35-6.301c-0.049-4.551-4.149-6.5-8.399-6.5h-2.45v-3.301
				h2.45c3.2,0,7.25-1.65,7.25-5.5c0-2.6-1.65-4.9-5.7-4.9c-2.601,0-5.101,1.15-6.5,2.15l-1.2-3.199
				c1.75-1.25,5.05-2.502,8.55-2.502c6.4,0,9.301,3.801,9.301,7.752c0,3.4-2.051,6.25-6,7.699v0.102c4,0.75,7.2,3.75,7.25,8.299
				c0,5.201-4.1,9.752-11.851,9.752c-3.65,0-6.851-1.15-8.45-2.201L128.84,547.973z"/>
		</g>
		<g>
			<path fill="#FFFFFF" d="M190.622,552.973v-8.9h-15.101v-2.85l14.5-20.752h4.75v20.201h4.551v3.4h-4.551v8.9H190.622z
				 M190.622,540.672v-10.851c0-1.7,0.05-3.4,0.149-5.101h-0.149c-1,1.9-1.8,3.301-2.7,4.801l-7.951,11.051v0.1H190.622z"/>
		</g>
		<g>
			<path fill="#FFFFFF" d="M246.911,523.896h-12.4l-1.25,8.35c0.75-0.1,1.45-0.15,2.65-0.15c2.55,0,5,0.5,7,1.75
				c2.55,1.4,4.65,4.25,4.65,8.301c0,6.352-5.051,11.102-12.101,11.102c-3.551,0-6.501-1-8.101-2l1.1-3.352
				c1.351,0.801,4,1.801,7.001,1.801c4.1,0,7.7-2.699,7.65-7.051c0-4.199-2.851-7.15-9.301-7.15c-1.9,0-3.351,0.15-4.551,0.301
				l2.101-15.602h15.551V523.896z"/>
		</g>
		<g>
			<path fill="#FFFFFF" d="M293.822,523.546c-0.9-0.05-2.051,0.05-3.301,0.25c-6.95,1.101-10.551,6.101-11.301,11.501h0.1
				c1.55-2.1,4.3-3.801,7.9-3.801c5.751,0,9.801,4.201,9.801,10.501c0,6.001-4.05,11.501-10.85,11.501
				c-6.9,0-11.451-5.4-11.451-13.852c0-6.4,2.25-11.45,5.5-14.65c2.7-2.65,6.3-4.301,10.4-4.801c1.301-0.199,2.4-0.25,3.201-0.25
				V523.546z M292.572,542.297c0-4.65-2.65-7.45-6.701-7.45c-2.65,0-5.15,1.601-6.35,4c-0.25,0.501-0.45,1.101-0.45,1.9
				c0.05,5.351,2.55,9.351,7.201,9.351C290.021,550.098,292.572,546.947,292.572,542.297z"/>
		</g>
		<g>
			<path fill="#FFFFFF" d="M347.504,520.471v2.899l-14.151,29.603h-4.55l14.101-28.752v-0.1h-15.901v-3.65H347.504z"/>
		</g>
		<g>
			<path fill="#FFFFFF" d="M383.952,535.871c-3.65-1.699-5.2-4.5-5.2-7.299c0-5.15,4.35-8.652,10.101-8.652c6.3,0,9.5,3.9,9.5,8.002
				c0,2.75-1.4,5.75-5.4,7.6v0.15c4.051,1.6,6.551,4.5,6.551,8.4c0,5.701-4.851,9.451-11.051,9.451c-6.801,0-10.9-4-10.9-8.752
				c0-4.1,2.45-7.049,6.45-8.75L383.952,535.871z M395.052,544.521c0-3.898-2.749-5.85-7.149-7.1c-3.801,1.1-5.851,3.65-5.851,6.75
				c-0.15,3.25,2.351,6.15,6.5,6.15C392.502,550.322,395.052,547.873,395.052,544.521z M382.952,528.271c-0.051,3.25,2.45,5,6.2,6
				c2.8-0.949,4.95-2.949,4.95-5.9c0-2.6-1.55-5.301-5.5-5.301C384.952,523.07,382.952,525.471,382.952,528.271z"/>
		</g>
	</g>
	<g>
		<g>
			<path d="M533.345,974.57h-0.101l-5.65,3.051l-0.85-3.35l7.101-3.801h3.75v32.502h-4.25V974.57z"/>
		</g>
		<g>
			<path d="M521.794,951.526v-2.699l3.45-3.351c8.301-7.9,12.102-12.101,12.102-17.001c0-3.301-1.551-6.351-6.4-6.351
				c-2.951,0-5.4,1.5-6.9,2.75l-1.4-3.101c2.199-1.85,5.449-3.3,9.15-3.3c7,0,9.951,4.8,9.951,9.45
				c0,6.001-4.352,10.852-11.201,17.451l-2.551,2.4v0.1h14.551v3.65H521.794z"/>
		</g>
		<g>
			<path d="M523.219,897.406c1.25,0.75,4.1,2.001,7.201,2.001c5.6,0,7.4-3.55,7.35-6.301c-0.049-4.55-4.15-6.5-8.4-6.5h-2.449v-3.3
				h2.449c3.201,0,7.25-1.65,7.25-5.501c0-2.601-1.65-4.9-5.699-4.9c-2.602,0-5.102,1.15-6.5,2.15l-1.201-3.2
				c1.75-1.25,5.051-2.5,8.551-2.5c6.4,0,9.301,3.8,9.301,7.75c0,3.4-2.051,6.25-6,7.701v0.1c4,0.75,7.199,3.75,7.25,8.301
				c0,5.2-4.1,9.75-11.852,9.75c-3.65,0-6.85-1.15-8.449-2.199L523.219,897.406z"/>
		</g>
		<g>
			<path fill="#FFFFFF" d="M535.37,852.843v-8.9h-15.102v-2.851l14.501-20.751h4.75v20.201h4.551v3.4h-4.551v8.9H535.37z
				 M535.37,840.542V829.69c0-1.699,0.05-3.4,0.149-5.1h-0.149c-1,1.9-1.8,3.3-2.7,4.8l-7.95,11.051v0.101H535.37z"/>
		</g>
		<g>
			<path fill="#FFFFFF" d="M541.619,772.639h-12.4l-1.25,8.351c0.75-0.101,1.451-0.149,2.65-0.149c2.551,0,5,0.5,7,1.75
				c2.551,1.399,4.65,4.25,4.65,8.3c0,6.351-5.051,11.101-12.1,11.101c-3.551,0-6.502-1-8.102-2l1.1-3.35
				c1.352,0.799,4,1.8,7.002,1.8c4.1,0,7.699-2.7,7.65-7.051c0-4.2-2.852-7.15-9.301-7.15c-1.9,0-3.352,0.149-4.551,0.3l2.1-15.601
				h15.551V772.639z"/>
		</g>
		<g>
			<path fill="#FFFFFF" d="M540.121,720.974c-0.9-0.05-2.051,0.05-3.301,0.25c-6.949,1.101-10.551,6.101-11.301,11.501h0.1
				c1.551-2.1,4.301-3.801,7.9-3.801c5.752,0,9.801,4.201,9.801,10.501c0,6.001-4.049,11.501-10.85,11.501
				c-6.9,0-11.451-5.4-11.451-13.852c0-6.4,2.25-11.45,5.5-14.65c2.701-2.65,6.301-4.301,10.4-4.801
				c1.301-0.199,2.4-0.25,3.201-0.25V720.974z M538.871,739.725c0-4.65-2.65-7.45-6.701-7.45c-2.65,0-5.15,1.601-6.35,4
				c-0.25,0.501-0.451,1.101-0.451,1.9c0.051,5.351,2.551,9.351,7.201,9.351C536.32,747.525,538.871,744.375,538.871,739.725z"/>
		</g>
		<g>
			<path fill="#FFFFFF" d="M542.42,669.889v2.899l-14.15,29.603h-4.551l14.102-28.752v-0.1h-15.902v-3.65H542.42z"/>
		</g>
		<g>
			<path fill="#FFFFFF" d="M527.594,635.363c-3.65-1.701-5.199-4.5-5.199-7.301c0-5.15,4.35-8.65,10.1-8.65c6.301,0,9.5,3.9,9.5,8
				c0,2.75-1.4,5.75-5.4,7.601v0.149c4.051,1.601,6.551,4.501,6.551,8.401c0,5.7-4.85,9.45-11.051,9.45c-6.801,0-10.9-4-10.9-8.75
				c0-4.101,2.451-7.051,6.451-8.751L527.594,635.363z M538.693,644.014c0-3.9-2.748-5.851-7.148-7.101
				c-3.801,1.101-5.852,3.649-5.852,6.751c-0.15,3.25,2.352,6.149,6.5,6.149C536.145,649.813,538.693,647.363,538.693,644.014z
				 M526.594,627.762c-0.051,3.251,2.451,5.001,6.201,6.001c2.799-0.95,4.949-2.95,4.949-5.9c0-2.601-1.549-5.3-5.5-5.3
				C528.594,622.563,526.594,624.963,526.594,627.762z"/>
		</g>
	</g>
</g>
<g id="Cross_lines">
	<g>
		<rect x="162" y="510" fill="#FFFFFF" width="700" height="5"/>
	</g>
	<g>
		<rect x="509" y="163" fill="#FFFFFF" width="5" height="700"/>
	</g>
	<g>
		<rect x="12" y="510" width="150" height="5"/>
	</g>
	<g>
		<rect x="862" y="510" width="150" height="5"/>
	</g>
	<g>
		<rect x="509" y="860" width="5" height="150"/>
	</g>
	<g>
		<rect x="509" y="12" width="5" height="150"/>
	</g>
</g>
<g id="Bullet_holes" display="none">
	<g display="inline">
		<radialGradient id="SVGID_1_" cx="562.0166" cy="511.7275" r="25.3564" gradientUnits="userSpaceOnUse">
			<stop  offset="0" style="stop-color:#4D4D4D"/>
			<stop  offset="0.1669" style="stop-color:#515151"/>
			<stop  offset="0.3227" style="stop-color:#5C5C5C"/>
			<stop  offset="0.4741" style="stop-color:#6F6F6F"/>
			<stop  offset="0.6228" style="stop-color:#898989"/>
			<stop  offset="0.7696" style="stop-color:#ACACAC"/>
			<stop  offset="0.913" style="stop-color:#D5D5D5"/>
			<stop  offset="1" style="stop-color:#F2F2F2"/>
		</radialGradient>
		<path fill="url(#SVGID_1_)" d="M562,535.242c-1.222,0-2.328-0.468-3.499-0.652c-1.201-0.189-1.876-1.686-3.008-2.055
			c-1.151-0.375-4.4,3.992-5.464,3.448c-1.074-0.55-2.384-1.693-3.353-2.398c-0.973-0.709-2.931-1.134-3.78-1.983
			c-0.849-0.849,3.88-6.562,3.171-7.534c-0.706-0.969-2.466-0.845-3.016-1.919c-0.544-1.063-2.126-1.529-2.501-2.681
			c-0.368-1.132-3.496-1.788-3.686-2.989c-0.185-1.17,0.3-2.757,0.3-3.979s3.476-2.184,3.659-3.354
			c0.189-1.201-4.731-3.815-4.362-4.947c0.375-1.151,7.809,0.618,8.354-0.446c0.55-1.075,1.164-1.405,1.869-2.374
			c0.709-0.973,0.075-2.42,0.925-3.27c0.85-0.849-0.859-4.55,0.114-5.259c0.969-0.706,2.417-0.968,3.492-1.518
			c1.063-0.544,1.84-2.441,2.991-2.816c1.132-0.369,2.536-1.446,3.737-1.636c1.17-0.185,2.834,0.24,4.056,0.24
			s2.927-0.684,4.098-0.499c1.201,0.189,2.433,1.929,3.565,2.297c1.151,0.375,3.325-0.607,4.389-0.063
			c1.075,0.549-1.756,7.425-0.787,8.131c0.974,0.709,5.229-2.679,6.078-1.829s-2.462,5.049-1.753,6.022
			c0.705,0.969,4.071-0.05,4.621,1.024c0.544,1.064,0.579,2.269,0.954,3.42c0.368,1.132,1.351,2.079,1.54,3.28
			c0.185,1.171,1.446,2.374,1.446,3.596s-4.106,1.977-4.291,3.147c-0.189,1.201,6.084,4.033,5.715,5.165
			c-0.375,1.151-4.178,1.249-4.723,2.313c-0.55,1.075-2.237,1.417-2.942,2.386c-0.709,0.973,0.533,3.735-0.315,4.585
			c-0.85,0.849-4.517-1.636-5.489-0.928c-0.969,0.706-1.086,2.309-2.16,2.858c-1.064,0.544-0.882,4.448-2.033,4.821
			c-1.132,0.369-3.708-5.586-4.909-5.396C563.833,531.636,563.222,535.242,562,535.242z"/>
		<linearGradient id="SVGID_2_" gradientUnits="userSpaceOnUse" x1="547.2266" y1="514.8398" x2="579.1133" y2="514.8398">
			<stop  offset="0" style="stop-color:#FFFFFF"/>
			<stop  offset="0.0957" style="stop-color:#F8F8F8"/>
			<stop  offset="0.2325" style="stop-color:#E5E5E5"/>
			<stop  offset="0.3941" style="stop-color:#C6C6C6"/>
			<stop  offset="0.5746" style="stop-color:#9B9B9B"/>
			<stop  offset="0.7708" style="stop-color:#646464"/>
			<stop  offset="0.9773" style="stop-color:#222222"/>
			<stop  offset="1" style="stop-color:#1A1A1A"/>
		</linearGradient>
		<path fill="url(#SVGID_2_)" d="M563.17,530.783c-8.791,0-15.943-7.152-15.943-15.943c0-8.792,7.152-15.943,15.943-15.943
			s15.943,7.152,15.943,15.943C579.113,523.631,571.961,530.783,563.17,530.783z"/>
		<path d="M570.716,513.073c0,1.332-0.808,2.628-1.329,3.78c-0.532,1.176-1.447,2.113-2.404,2.991
			c-0.936,0.857-1.865,1.901-3.096,2.369c-1.17,0.444-2.548,0.077-3.887,0.077s-2.562-0.043-3.731-0.486
			c-1.23-0.469-2.657-0.728-3.594-1.586c-0.957-0.877-0.962-2.446-1.495-3.621c-0.521-1.153-1.063-2.192-1.063-3.524
			c0-1.333-0.164-2.691,0.357-3.844c0.532-1.175,1.719-1.906,2.676-2.783c0.936-0.858,1.771-1.94,3.002-2.408
			c1.17-0.445,2.509-1.076,3.848-1.076s2.705,0.558,3.875,1.003c1.23,0.468,2.567,1.048,3.503,1.906
			c0.957,0.877,1.292,2.331,1.824,3.506C569.724,510.529,570.716,511.741,570.716,513.073z"/>
	</g>
	<g display="inline">
		
			<radialGradient id="SVGID_3_" cx="270.8682" cy="749.4873" r="25.3547" gradientTransform="matrix(0.7732 0.6342 -0.6342 0.7732 536.9058 -1.5605)" gradientUnits="userSpaceOnUse">
			<stop  offset="0" style="stop-color:#4D4D4D"/>
			<stop  offset="0.1669" style="stop-color:#515151"/>
			<stop  offset="0.3227" style="stop-color:#5C5C5C"/>
			<stop  offset="0.4741" style="stop-color:#6F6F6F"/>
			<stop  offset="0.6228" style="stop-color:#898989"/>
			<stop  offset="0.7696" style="stop-color:#ACACAC"/>
			<stop  offset="0.913" style="stop-color:#D5D5D5"/>
			<stop  offset="1" style="stop-color:#F2F2F2"/>
		</radialGradient>
		<path fill="url(#SVGID_3_)" d="M256.091,767.898c-0.945-0.774-1.503-1.839-2.292-2.724c-0.809-0.908-0.383-2.492-1.024-3.496
			c-0.652-1.02-5.931,0.297-6.409-0.799c-0.482-1.106-0.77-2.82-1.071-3.98c-0.303-1.165-1.547-2.735-1.666-3.931
			c-0.118-1.195,7.158-2.611,7.227-3.813c0.069-1.196-1.37-2.217-1.114-3.396c0.254-1.168-0.672-2.531-0.232-3.659
			c0.433-1.108-1.569-3.6-0.954-4.648c0.6-1.021,1.98-1.941,2.755-2.886s4.07,0.515,4.956-0.273c0.908-0.809-1.239-5.948-0.236-6.59
			c1.02-0.652,5.647,5.427,6.743,4.949c1.106-0.482,1.788-0.348,2.948-0.648c1.166-0.303,1.596-1.823,2.792-1.941
			c1.195-0.118,2.221-4.062,3.423-3.992c1.196,0.069,2.482,0.783,3.661,1.04c1.168,0.254,2.971-0.72,4.099-0.279
			c1.109,0.433,2.878,0.49,3.926,1.105c1.022,0.6,2.038,1.983,2.983,2.758s2.696,1.327,3.484,2.213
			c0.809,0.908,0.659,3.034,1.301,4.037c0.652,1.021,2.956,1.64,3.434,2.735c0.482,1.106-6.064,4.625-5.763,5.785
			c0.303,1.165,5.739,1.246,5.856,2.441c0.118,1.195-5.103,2.343-5.172,3.545c-0.069,1.196,3.179,2.542,2.922,3.721
			c-0.254,1.168-0.992,2.122-1.432,3.25c-0.433,1.109-0.274,2.464-0.889,3.513c-0.6,1.021-0.387,2.753-1.162,3.697
			s-4.428-1.076-5.313-0.288c-0.908,0.809,2.146,6.976,1.142,7.617c-1.02,0.652-4.021-1.684-5.117-1.206
			c-1.107,0.482-2.628-0.322-3.788-0.021c-1.166,0.304-1.957,3.227-3.152,3.345c-1.196,0.117-2.455-4.128-3.656-4.197
			c-1.197-0.068-2.303,1.096-3.482,0.84c-1.167-0.254-3.502,2.878-4.63,2.438c-1.109-0.433,0.676-6.668-0.373-7.283
			C259.795,766.274,257.036,768.673,256.091,767.898z"/>
		
			<linearGradient id="SVGID_4_" gradientUnits="userSpaceOnUse" x1="256.0796" y1="752.5996" x2="287.9644" y2="752.5996" gradientTransform="matrix(0.7732 0.6342 -0.6342 0.7732 536.9058 -1.5605)">
			<stop  offset="0" style="stop-color:#FFFFFF"/>
			<stop  offset="0.0957" style="stop-color:#F8F8F8"/>
			<stop  offset="0.2325" style="stop-color:#E5E5E5"/>
			<stop  offset="0.3941" style="stop-color:#C6C6C6"/>
			<stop  offset="0.5746" style="stop-color:#9B9B9B"/>
			<stop  offset="0.7708" style="stop-color:#646464"/>
			<stop  offset="0.9773" style="stop-color:#222222"/>
			<stop  offset="1" style="stop-color:#1A1A1A"/>
		</linearGradient>
		<path fill="url(#SVGID_4_)" d="M259.824,765.193c-6.797-5.575-7.792-15.642-2.216-22.438s15.641-7.791,22.438-2.216
			c6.797,5.574,7.792,15.641,2.216,22.438S266.621,770.768,259.824,765.193z"/>
		<path d="M276.879,756.277c-0.845,1.03-2.282,1.527-3.417,2.086c-1.156,0.572-2.458,0.721-3.754,0.793
			c-1.268,0.069-2.646,0.278-3.893-0.14c-1.187-0.398-2.027-1.545-3.062-2.394c-1.035-0.849-1.952-1.662-2.574-2.748
			c-0.655-1.142-1.583-2.25-1.762-3.508c-0.184-1.285,0.787-2.504,1.121-3.75c0.328-1.222,0.576-2.369,1.421-3.399
			c0.845-1.03,1.586-2.177,2.721-2.736c1.156-0.571,2.535-0.396,3.831-0.468c1.268-0.069,2.6-0.365,3.848,0.053
			c1.187,0.398,2.616,0.766,3.651,1.614c1.034,0.849,1.741,2.141,2.363,3.227c0.655,1.143,1.314,2.437,1.494,3.693
			c0.185,1.286-0.466,2.622-0.8,3.866C277.739,753.689,277.724,755.247,276.879,756.277z"/>
	</g>
	<g display="inline">
		<radialGradient id="SVGID_5_" cx="496.2988" cy="303.8789" r="27.8816" gradientUnits="userSpaceOnUse">
			<stop  offset="0" style="stop-color:#4D4D4D"/>
			<stop  offset="0.1166" style="stop-color:#555555"/>
			<stop  offset="0.3018" style="stop-color:#6C6C6C"/>
			<stop  offset="0.5325" style="stop-color:#929292"/>
			<stop  offset="0.797" style="stop-color:#C6C6C6"/>
			<stop  offset="1" style="stop-color:#F2F2F2"/>
		</radialGradient>
		<path fill="url(#SVGID_5_)" d="M517.042,316.293c-0.889,1.249-2.268,1.867-3.343,2.881c-1.106,1.044-3.291,0.005-4.553,0.793
			c-1.283,0.801,1.044,9.448-0.355,9.977c-1.409,0.533-4.008,0.739-5.488,0.988c-1.48,0.249-4.035,2.012-5.541,1.969
			c-1.495-0.042-1.587-12.301-3.062-12.638c-1.45-0.332-2.933,1.917-4.32,1.293c-1.348-0.606-3.416,0.667-4.664-0.222
			c-1.249-0.889-5.79,1.518-6.804,0.443c-1.044-1.107-1.598-3.488-2.386-4.751c-0.801-1.282,3.555-5.185,3.026-6.584
			c-0.533-1.409-9.693-0.891-9.942-2.372c-0.249-1.48,12.16-3.887,12.202-5.392c0.042-1.495,0.647-1.667,0.985-3.141
			c0.332-1.45-1.782-2.598-1.158-3.986c0.606-1.348-4.411-5.721-3.522-6.969c0.889-1.249,2.781-2.058,3.856-3.072
			c1.107-1.044,1.224-4.181,2.486-4.968c1.283-0.801,2.871-2.917,4.27-3.446c1.409-0.533,3.95-0.262,5.43-0.511
			c1.48-0.249,3.804-1.772,5.31-1.73c1.495,0.042,3.517,2.647,4.992,2.984c1.45,0.332,4.646-1.658,6.033-1.034
			c1.348,0.606-3.445,11.923-2.197,12.813c1.249,0.889,7.944-5.052,8.958-3.977c1.043,1.107-5.16,7.354-4.372,8.617
			c0.801,1.283,6.247-0.456,6.776,0.943c0.532,1.409,0.189,2.897,0.438,4.377c0.249,1.48,1.563,2.789,1.52,4.294
			c-0.043,1.495,1.663,3.431,1.326,4.905c-0.332,1.45-7.08,0.484-7.704,1.872C514.635,311.997,517.931,315.045,517.042,316.293z"/>
		
			<linearGradient id="SVGID_6_" gradientUnits="userSpaceOnUse" x1="483.5605" y1="305.7163" x2="515.4482" y2="305.7163" gradientTransform="matrix(0.58 -0.8146 0.8146 0.58 -37.5293 533.1733)">
			<stop  offset="0" style="stop-color:#FFFFFF"/>
			<stop  offset="0.0957" style="stop-color:#F8F8F8"/>
			<stop  offset="0.2325" style="stop-color:#E5E5E5"/>
			<stop  offset="0.3941" style="stop-color:#C6C6C6"/>
			<stop  offset="0.5746" style="stop-color:#9B9B9B"/>
			<stop  offset="0.7708" style="stop-color:#646464"/>
			<stop  offset="0.9773" style="stop-color:#222222"/>
			<stop  offset="1" style="stop-color:#1A1A1A"/>
		</linearGradient>
		<path fill="url(#SVGID_6_)" d="M514.209,312.84c-5.099,7.161-15.074,8.84-22.235,3.741c-7.162-5.099-8.839-15.074-3.741-22.235
			c5.099-7.162,15.073-8.84,22.235-3.741C517.629,295.704,519.308,305.678,514.209,312.84z"/>
		<path d="M502.672,297.266c1.081,0.769,1.706,1.973,2.389,3.01c0.716,1.087,1.78,2.109,2.032,3.345
			c0.256,1.258-0.384,2.601-0.639,3.856c-0.25,1.228-0.549,2.452-1.316,3.529s-2.017,1.437-3.096,2.074
			c-1.103,0.652-1.975,1.994-3.247,2.163c-1.25,0.167-2.624-0.229-3.885-0.549c-1.204-0.307-2.02-1.404-3.101-2.172
			c-1.081-0.77-2.637-1.015-3.321-2.052c-0.716-1.087-0.955-2.49-1.207-3.726c-0.256-1.258-0.272-2.589-0.018-3.844
			c0.25-1.228,1.281-2.083,2.048-3.16s1.191-2.411,2.27-3.048c1.103-0.652,2.42-0.94,3.692-1.11c1.25-0.166,2.629-0.384,3.892-0.063
			C500.37,295.824,501.592,296.496,502.672,297.266z"/>
	</g>
	<g display="inline">
		<path fill="#BDCCD4" d="M583.422,258.46c-1.43-0.551-2.371-1.732-3.62-2.521c-1.286-0.813-0.822-3.188-1.898-4.214
			c-1.095-1.044-8.895,3.36-9.755,2.137c-0.866-1.232-1.713-3.7-2.321-5.072c-0.609-1.372-2.952-3.409-3.285-4.878
			c-0.33-1.458,11.526-4.594,11.486-6.105c-0.039-1.487-2.586-2.362-2.326-3.861c0.253-1.456-1.494-3.144-0.943-4.574
			s-2.91-5.231-2.121-6.48c0.813-1.286,2.982-2.416,4.01-3.492c1.044-1.095,5.907,2.158,7.132,1.298
			c1.232-0.866-1.547-9.614-0.175-10.223s6.786,10.818,8.255,10.485c1.458-0.331,1.775,0.213,3.287,0.173
			c1.487-0.039,2.074-2.372,3.573-2.112c1.456,0.252,4.447-5.696,5.877-5.145c1.431,0.551,2.685,2.183,3.934,2.972
			c1.286,0.813,4.354,0.146,5.431,1.173c1.095,1.044,3.539,2.057,4.398,3.28c0.866,1.232,1.235,3.76,1.845,5.132
			c0.608,1.372,2.661,3.246,2.994,4.714c0.33,1.458-1.691,4.064-1.651,5.576c0.039,1.487,2.761,4.09,2.501,5.589
			c-0.253,1.456-12.41-0.377-12.961,1.053s6.87,6.441,6.081,7.69c-0.813,1.286-8.409-3.172-9.436-2.096
			c-1.044,1.095,1.996,5.939,0.772,6.799c-1.232,0.866-2.76,0.903-4.132,1.512c-1.372,0.608-2.313,2.206-3.781,2.539
			c-1.459,0.33-2.911,2.464-4.423,2.503c-1.487,0.039-2.229-6.74-3.728-7C586.985,255.06,584.852,259.011,583.422,258.46z"/>
		
			<linearGradient id="SVGID_7_" gradientUnits="userSpaceOnUse" x1="590.0918" y1="345.0845" x2="621.9785" y2="345.0845" gradientTransform="matrix(0.9332 0.3594 -0.3594 0.9332 150.2661 -299.8623)">
			<stop  offset="0" style="stop-color:#FFFFFF"/>
			<stop  offset="0.0957" style="stop-color:#F8F8F8"/>
			<stop  offset="0.2325" style="stop-color:#E5E5E5"/>
			<stop  offset="0.3941" style="stop-color:#C6C6C6"/>
			<stop  offset="0.5746" style="stop-color:#9B9B9B"/>
			<stop  offset="0.7708" style="stop-color:#646464"/>
			<stop  offset="0.9773" style="stop-color:#222222"/>
			<stop  offset="1" style="stop-color:#1A1A1A"/>
		</linearGradient>
		<path fill="url(#SVGID_7_)" d="M586.063,254.859c-8.203-3.161-12.307-12.406-9.146-20.609c3.16-8.203,12.405-12.306,20.608-9.147
			c8.204,3.161,12.308,12.405,9.147,20.609C603.513,253.915,594.268,258.019,586.063,254.859z"/>
		<path d="M602.727,240.662c-0.639,1.657-1.795,2.858-3.194,3.833c-1.377,0.96-2.928,1.538-4.689,1.703
			c-1.642,0.153-3.415,0.287-5.099-0.361c-1.684-0.648-3.288-1.591-4.402-2.805c-1.196-1.305-2.254-2.964-2.631-4.601
			c-0.384-1.662,0.445-3.404,1.083-5.062c0.639-1.657,1.198-3.498,2.598-4.473c1.377-0.96,3.352-0.598,5.114-0.763
			c1.642-0.153,3.403-0.728,5.087-0.079s2.709,2.161,3.823,3.376c1.197,1.305,2.352,2.56,2.729,4.196
			C603.527,237.288,603.365,239.004,602.727,240.662z"/>
	</g>
	<g display="inline">
		<path fill="#BDCCD4" d="M761.466,105.443c-1.838,0.474-3.592-0.119-5.415-0.079c-1.878,0.042-2.849-2.876-4.65-3.257
			c-1.823-0.385-7.562,9.788-9.242,9.008c-1.683-0.78-4.298-3.098-5.772-4.235c-1.463-1.127-5.483-2.132-6.678-3.572
			c-1.173-1.413,10.951-11.848,10.098-13.525c-0.827-1.624-4.251-1.057-4.724-2.896c-0.475-1.838-3.415-2.79-3.477-4.61
			c-0.063-1.881-6.127-4.721-5.783-6.524c0.35-1.837,2.475-4.231,3.21-5.925c0.741-1.708,8.092,0.262,9.188-1.235
			c1.095-1.495-5.864-11.241-4.454-12.46c1.393-1.204,12.185,11.251,13.849,10.38c1.615-0.845,1.825-0.121,3.663-0.594
			s1.62-3.554,3.443-3.595c1.878-0.042,4.207-8.372,6.008-7.991c1.824,0.385,3.722,2.247,5.402,3.026
			c1.683,0.78,5.544-0.565,7.018,0.571c1.463,1.127,4.794,2.17,5.988,3.61c1.173,1.413,1.907,4.714,2.762,6.392
			c0.827,1.624,3.626,3.993,4.1,5.831s-2.109,5.307-2.049,7.127c0.063,1.881,3.589,5.33,3.245,7.134
			c-0.35,1.837-16.117-1.124-16.853,0.57c-0.742,1.708,8.654,8.634,7.559,10.13c-1.095,1.495-10.375-5.238-11.785-4.019
			c-1.394,1.204,2.042,7.8,0.378,8.671C764.877,104.223,763.304,104.97,761.466,105.443z"/>
		
			<linearGradient id="SVGID_8_" gradientUnits="userSpaceOnUse" x1="813.2637" y1="384.3525" x2="845.1514" y2="384.3525" gradientTransform="matrix(1.038 -0.2676 0.2721 1.0558 -208.1123 -100.0801)">
			<stop  offset="0" style="stop-color:#FFFFFF"/>
			<stop  offset="0.0957" style="stop-color:#F8F8F8"/>
			<stop  offset="0.2325" style="stop-color:#E5E5E5"/>
			<stop  offset="0.3941" style="stop-color:#C6C6C6"/>
			<stop  offset="0.5746" style="stop-color:#9B9B9B"/>
			<stop  offset="0.7708" style="stop-color:#646464"/>
			<stop  offset="0.9773" style="stop-color:#222222"/>
			<stop  offset="1" style="stop-color:#1A1A1A"/>
		</linearGradient>
		<path fill="url(#SVGID_8_)" d="M761.526,100.656c-9.125,2.352-18.497-3.286-20.889-12.566
			c-2.392-9.281,3.087-18.746,12.212-21.098c9.126-2.352,18.495,3.285,20.889,12.567C776.13,88.838,770.652,98.304,761.526,100.656z
			"/>
		<ellipse transform="matrix(0.9684 -0.2496 0.2496 0.9684 3.2979 190.4211)" cx="752.602" cy="82.205" rx="10.228" ry="10.892"/>
	</g>
	<g display="inline">
		<path fill="#BDCCD4" d="M708.408,351.744c0,1.756-0.765,3.259-1.14,4.903c-0.387,1.696-2.711,2.242-3.451,3.773
			c-0.752,1.555,5.115,7.599,4.047,8.936c-1.072,1.342-3.402,3.042-4.744,4.115c-1.337,1.068-3.064,3.902-4.619,4.653
			c-1.531,0.74-7.036-9.329-8.732-8.942c-1.644,0.375-2.224,2.886-3.979,2.886s-3.324,1.815-4.968,1.44
			c-1.696-0.387-5.145,3.142-6.675,2.401c-1.556-0.751-3.15-2.876-4.486-3.944c-1.343-1.073,1.109-6.05,0.036-7.392
			c-1.068-1.337-9.291,1.319-10.043-0.236c-0.739-1.531,9.71-7.059,9.323-8.755c-0.375-1.644,0.115-2.082,0.115-3.838
			s-2.123-2.567-1.748-4.21c0.387-1.696-4.851-5.124-4.11-6.655c0.752-1.555,2.574-2.883,3.643-4.219
			c1.073-1.343,1.073-4.527,2.415-5.6c1.338-1.068,2.97-3.415,4.524-4.167c1.53-0.74,4.333-0.816,6.029-1.203
			c1.644-0.375,4.188-1.94,5.944-1.94s4.1,2.457,5.743,2.832c1.695,0.387,5.11-1.275,6.642-0.535
			c1.555,0.752-3.084,11.282-1.747,12.35c1.342,1.073,8.147-3.832,9.22-2.489c1.068,1.336-5.088,6.819-4.337,8.374
			c0.74,1.531,6.06,0.755,6.446,2.451C708.131,348.375,708.408,349.988,708.408,351.744z"/>
		
			<linearGradient id="SVGID_9_" gradientUnits="userSpaceOnUse" x1="670.2266" y1="354.8394" x2="702.1133" y2="354.8394" gradientTransform="matrix(0 -1 1 0 333.2896 1036.7441)">
			<stop  offset="0" style="stop-color:#FFFFFF"/>
			<stop  offset="0.0957" style="stop-color:#F8F8F8"/>
			<stop  offset="0.2325" style="stop-color:#E5E5E5"/>
			<stop  offset="0.3941" style="stop-color:#C6C6C6"/>
			<stop  offset="0.5746" style="stop-color:#9B9B9B"/>
			<stop  offset="0.7708" style="stop-color:#646464"/>
			<stop  offset="0.9773" style="stop-color:#222222"/>
			<stop  offset="1" style="stop-color:#1A1A1A"/>
		</linearGradient>
		<path fill="url(#SVGID_9_)" d="M704.072,350.574c0,8.791-7.152,15.943-15.943,15.943c-8.792,0-15.943-7.152-15.943-15.943
			s7.151-15.943,15.943-15.943C696.92,334.631,704.072,341.783,704.072,350.574z"/>
		<circle cx="685.789" cy="353.744" r="10.137"/>
	</g>
	<g display="inline">
		<path fill="#BDCCD4" d="M815.184,688.454c1.43,1.418,2.076,3.202,3.043,4.865c1.002,1.719-0.246,3.838,0.262,5.716
			c0.516,1.903,8.748,3.086,8.756,5.045c0.008,1.96-0.832,5.142-1.332,7.05c-0.493,1.881-0.441,5.584-1.429,7.311
			c-0.955,1.67-11.05-3.335-12.468-1.905s-0.75,3.898-2.413,4.867c-1.719,1.001-2.405,3.382-4.282,3.891
			c-1.903,0.515-3.684,5.167-5.644,5.175c-1.959,0.008-4.657-1.263-6.564-1.762c-1.882-0.493-1.835-6.01-3.562-6.997
			c-1.67-0.955-8.57,4.084-10,2.666s6.387-10.008,5.419-11.671c-1.001-1.719-0.674-2.326-1.182-4.204
			c-0.515-1.903-2.737-2.274-2.745-4.234c-0.008-1.959-5.69-4.419-5.191-6.326c0.493-1.882,2.146-3.799,3.132-5.525
			c0.955-1.67,0.758-5.059,2.176-6.488s3.138-4.126,4.801-5.094c1.719-1.002,4.861-1.395,6.738-1.902
			c1.904-0.516,4.805-2.152,6.765-2.16c1.959-0.008,4.646,2.471,6.553,2.971c1.882,0.493,5.712-0.805,7.438,0.183
			C815.124,680.878,813.754,687.036,815.184,688.454z"/>
		
			<linearGradient id="SVGID_10_" gradientUnits="userSpaceOnUse" x1="317.0625" y1="469.2627" x2="348.3115" y2="469.2627" gradientTransform="matrix(-0.71 -0.7042 0.7042 -0.71 706.126 1269.21)">
			<stop  offset="0" style="stop-color:#FFFFFF"/>
			<stop  offset="0.0957" style="stop-color:#F8F8F8"/>
			<stop  offset="0.2325" style="stop-color:#E5E5E5"/>
			<stop  offset="0.3941" style="stop-color:#C6C6C6"/>
			<stop  offset="0.5746" style="stop-color:#9B9B9B"/>
			<stop  offset="0.7708" style="stop-color:#646464"/>
			<stop  offset="0.9773" style="stop-color:#222222"/>
			<stop  offset="1" style="stop-color:#1A1A1A"/>
		</linearGradient>
		<path fill="url(#SVGID_10_)" d="M811.376,690.663c6.117,6.067,6.157,15.979,0.09,22.096c-6.067,6.117-15.979,6.156-22.096,0.09
			c-6.116-6.067-6.157-15.979-0.09-22.097C795.348,684.636,805.26,684.596,811.376,690.663z"/>
		<path d="M794.445,697.898c0.908-0.914,2.041-1.527,3.2-1.939c1.167-0.416,2.398-0.103,3.662-0.018
			c1.218,0.082,2.576-0.279,3.737,0.262c1.096,0.511,2.135,1.337,3.056,2.251c0.921,0.913,1.212,2.204,1.73,3.296
			c0.551,1.157,1.719,2.185,1.81,3.402c0.096,1.263-0.152,2.705-0.559,3.876c-0.404,1.162-1.408,2.162-2.314,3.076
			c-0.907,0.914-1.863,2.027-3.022,2.44c-1.167,0.416-2.612,0.124-3.876,0.039c-1.219-0.081-2.266-0.835-3.427-1.376
			c-1.096-0.511-2.57-0.584-3.491-1.498s-1.395-2.203-1.914-3.295c-0.551-1.157-0.724-2.397-0.815-3.614
			c-0.095-1.264-0.167-2.542,0.24-3.713C792.865,699.926,793.539,698.813,794.445,697.898z"/>
	</g>
	<g display="inline">
		<path fill="#BDCCD4" d="M555.852,661.25c-0.377,1.764-1.474,3.124-2.168,4.708c-0.719,1.642-3.237,1.754-4.248,3.167
			c-1.039,1.452,4.094,8.747,2.802,9.919c-1.317,1.195-3.987,2.546-5.51,3.409c-1.54,0.873-3.83,3.539-5.52,4.03
			c-1.688,0.49-5.509-11.034-7.284-10.967c-1.733,0.066-2.704,2.564-4.466,2.188s-3.714,1.162-5.269,0.393
			c-1.593-0.788-6.021,1.964-7.359,0.827c-1.341-1.141-2.383-3.731-3.432-5.159c-1.036-1.41,2.872-5.781,2.158-7.411
			c-0.699-1.598-9.823-1.005-10.178-2.755c-0.344-1.702,11.831-4.686,11.846-6.479c0.014-1.729,0.634-2.148,1.011-3.912
			s-1.643-3.111-0.948-4.695c0.72-1.642-4.119-6.179-3.108-7.592c1.038-1.452,3.123-2.467,4.415-3.639
			c1.317-1.195,1.803-4.495,3.325-5.358c1.541-0.873,3.634-3.042,5.324-3.533c1.687-0.49,4.649-0.054,6.425-0.122
			c1.733-0.065,4.763-1.155,6.524-0.778s3.65,3.477,5.205,4.246c1.593,0.788,5.55-0.027,6.889,1.109
			c1.342,1.14-6.3,10.628-5.251,12.056c1.036,1.41,9.323-1.788,10.037-0.158c0.699,1.598-7.104,5.532-6.749,7.281
			c0.344,1.703,6.02,2.255,6.005,4.048C556.314,657.801,556.229,659.486,555.852,661.25z"/>
		
			<linearGradient id="SVGID_11_" gradientUnits="userSpaceOnUse" x1="543.3672" y1="316.8223" x2="574.6172" y2="316.8223" gradientTransform="matrix(0.2267 -1.0606 0.988 0.2112 96.7568 1181.7949)">
			<stop  offset="0" style="stop-color:#FFFFFF"/>
			<stop  offset="0.0957" style="stop-color:#F8F8F8"/>
			<stop  offset="0.2325" style="stop-color:#E5E5E5"/>
			<stop  offset="0.3941" style="stop-color:#C6C6C6"/>
			<stop  offset="0.5746" style="stop-color:#9B9B9B"/>
			<stop  offset="0.7708" style="stop-color:#646464"/>
			<stop  offset="0.9773" style="stop-color:#222222"/>
			<stop  offset="1" style="stop-color:#1A1A1A"/>
		</linearGradient>
		<path fill="url(#SVGID_11_)" d="M551.937,659.141c-1.953,9.139-10.467,15.092-18.979,13.272
			c-8.513-1.819-13.848-10.733-11.895-19.871s10.466-15.092,18.979-13.272C548.554,641.089,553.889,650.003,551.937,659.141z"/>
		<path d="M536.652,648.189c1.315,0.282,2.486,0.973,3.483,1.814c0.98,0.828,1.304,2.132,1.894,3.346
			c0.554,1.142,1.65,2.165,1.79,3.517c0.13,1.258-0.042,2.641-0.327,3.976c-0.285,1.334-1.281,2.326-1.914,3.422
			c-0.681,1.176-0.806,2.845-1.776,3.659c-1.035,0.867-2.438,1.543-3.67,1.897c-1.254,0.361-2.739,0.054-4.055-0.228
			c-1.316-0.281-2.874-0.516-3.871-1.357c-0.98-0.827-1.448-2.331-2.038-3.545c-0.554-1.142-0.388-2.499-0.527-3.851
			c-0.13-1.258-0.94-2.619-0.655-3.954s1.163-2.488,1.796-3.583c0.68-1.176,1.647-2.066,2.619-2.882
			c1.035-0.867,2.075-1.725,3.308-2.08C533.963,647.98,535.336,647.908,536.652,648.189z"/>
	</g>
</g>
</svg>
